/* XPM */
static char *_76a9f364ab84a79c740b576782ec328wN61fChL02RJeq89[] = {
/* columns rows colors chars-per-pixel */
"56 56 28 1 ",
"  c None",
". c black",
"X c #1B2530",
"o c #1F2832",
"O c #212A33",
"+ c #212B33",
"@ c #401C2E",
"# c #411F30",
"$ c #422232",
"% c #764B41",
"& c #754C42",
"* c #754C43",
"= c #535365",
"- c #545465",
"; c #BB3030",
": c #BA3131",
"> c #BA3333",
", c #995D41",
"< c #985D43",
"1 c #FF5352",
"2 c #FF5453",
"3 c #CC7765",
"4 c #DC9887",
"5 c #DD9988",
"6 c #CDC4DD",
"7 c #CDC5DE",
"8 c #FFD6CC",
"9 c #FFF7FF",
/* pixels */
"                    $$$$        $$$$                    ",
"                    $$$$        $$$$                    ",
"                  $$>>>>$$    $$>>>>$$                  ",
"                  $$>>>>$$    $$>>>>$$                  ",
"                  $$>>;;@@;;>>$$>>>>$$                  ",
"                  $$>>;;@@;>;;@@>>>>$$                  ",
"                  $$@@661111112166$$$$                  ",
"                  $@@@661111111166$$$$                  ",
"                  $@2266111111116622$$                  ",
"                  $@2266112211116622$$                  ",
"                ..%%@@116699996621@@**..                ",
"                ..%%@@116699996622@@**..                ",
"                ..,,,,;;11112211;;,,<<..                ",
"                ..,,,,;;11112211;;,,<<..                ",
"              ..<<45,,%%@@%%%%@@%%,,54<<..              ",
"              ..<,55,,%%@@%%%%@@%*,,44<<..              ",
"              ..**,,@@@@55,,@@55@@@@,<**..              ",
"              ..**,,@@@@55,,@@55@@@@,<**..              ",
"              $$*%@@@@8888%%@@8888@@@$**$$              ",
"              $$*%@@@@8888%%@@8888@@@$**$$              ",
"              $$$@%%3355@@8888@@5533%*$$$$              ",
"              $$@@%%3355@@8888@@5533%*$$$$              ",
"              ......%%55@@5555@@55%%......              ",
"              ......%%55@@5555@@55%%......              ",
"              ..XX....%%33333333%%....OO..              ",
"              ..XX....%%33333333%*....++..              ",
"            ..Oo..;;@@@@........@@@@;;......            ",
"            ..OX..;;@@@@........@@@@;;......            ",
"          ....-=9999..;;@@XXXX@@;;..999 --....          ",
"          ....--9999..;;@@XXXX@@;;..9999--....          ",
"          ..OO--7766%%66;;;;;;>;67**6667--OO..          ",
"          ..OO--7776%*66;;;;;;;;66%*7766--OO..          ",
"        OO..====....%%....6667....**....==--..OO        ",
"        OO..====....%%....7666....%%....==--..OO        ",
"        ....XX====....>;;;....;;;;....====XX....        ",
"        ....XX====....;;;;....;>;;....====XX....        ",
"        OO....======..==--....==--..======....OO        ",
"        OO....======..===-....===-..=====-....OO        ",
"    OO........XX======....====....======XX........OO    ",
"    OO........XX======....====....======XX........OO    ",
"    ............========================............    ",
"    ............========================............    ",
"      ............XX================XX............      ",
"      ............XX================XX............      ",
"        OO............XX========XX............OO        ",
"        OO............XX========XX............OO        ",
"          ..................................OO          ",
"          ..................................OO          ",
"            OO............................OO            ",
"            OO............................OO            ",
"              OO........................OO              ",
"              OO........................OO              ",
"                  OO................OO$$                ",
"                  OO................OO$$                ",
"                        ........                        ",
"                        ........                        "
};
