/* XPM */
static char *e52eda70499f450be2d279a047776ad7m6tFOlNZrcS4lC45[] = {
/* columns rows colors chars-per-pixel */
"64 64 10 1 ",
"  c None",
". c black",
"X c gray26",
"o c #7D5C58",
"O c #E55847",
"+ c #FD9272",
"@ c #E3AB82",
"# c #FFD8BF",
"$ c #D1CFDF",
"% c #EFEDFC",
/* pixels */
"                                                                ",
"                                                                ",
"                                                                ",
"                                                                ",
"                                                                ",
"                                                                ",
"                                                                ",
"                                                                ",
"                                                                ",
"                                                                ",
"                                                                ",
"                                                                ",
"                                                                ",
"                                                                ",
"                          XXXXXXXXXX                            ",
"                          XXXXXXXXXX                            ",
"                      XXXXOO++++++OOXXXX                        ",
"                      XXXXOO++++++OOXXXX                        ",
"                    ..OO++++++++++++OOOO..                      ",
"                    ..OO++++++++++++OOOO..                      ",
"                  ..OO++++++++++++++++OOOO..                    ",
"                  ..OO++++++++++++++++OOOO..                    ",
"                  ..++++++++++++++++++OO++..                    ",
"                  ..++++++++++++++++++OO++..                    ",
"                ..OO++OO++++OO++++++++++++OO..                  ",
"                ..OO++OO++++OO++++++++++++OO..                  ",
"                ..OOOO++++OO++++OO@@OO++++++..                  ",
"                ..OOOO++++OO++++OO@@OO++++++..                  ",
"              XXOOOOOO++++OO++++OO##@@OO++OOOOXX                ",
"              XXOOOOOO++++OO++++OO##@@OO++OOOOXX                ",
"          XXXX++OOOOOO++++OO++OO@@####OOOOOOOOOOXXXX            ",
"          XXXX++OOOOOO++++OO++OO@@####OOOOOOOOOOXXXX            ",
"          ..++++++++OOOO++OOOO########@@OOOO@@OOOO..            ",
"          ..++++++++OOOO++OOOO########@@OOOO@@OOOO..            ",
"            ..OO++OOOOOOOO@@########@@@@OOoo@@OO..              ",
"            ..OO++OOOOOOOO@@########@@@@OOoo@@OO..              ",
"          ..OOOOOOooOO@@$$XX######XX$$@@OOooOOOOOO..            ",
"          ..OOOOOOooOO@@$$XX######XX$$@@OOooOOOOOO..            ",
"            ....oo..@@@@%%..######..%%@@@@..oo....              ",
"            ....oo..@@@@%%..######..%%@@@@..oo....              ",
"                    ..@@##############@@..                      ",
"                    ..@@##############@@..                      ",
"                oooo  oo@@####@@####@@oo  oooo                  ",
"                oooo  oo@@####@@####@@oo  oooo                  ",
"              oo####..      @@@@@@      ..####oo                ",
"              oo####..      @@@@@@      ..####oo                ",
"              oo@@##..                  ..##@@oo                ",
"              oo@@##..                  ..##@@oo                ",
"                oooo                      oooo                  ",
"                oooo                      oooo                  ",
"                                                                ",
"                                                                ",
"                                                                ",
"                                                                ",
"                                                                ",
"                                                                ",
"                                                                ",
"                                                                ",
"                                                                ",
"                                                                ",
"                                                                ",
"                                                                ",
"                                                                ",
"                                                                "
};
