/* XPM */
static char *result[] = {
/* columns rows colors chars-per-pixel */
"64 64 9 1 ",
"  c black",
". c #630018",
"X c #6B3908",
"o c #4A3139",
"O c #C60031",
"+ c #E75163",
"@ c #DE9A10",
"# c #FFFBFF",
"$ c None",
/* pixels */
"$$$$$$$$$$$$$$$$$$$$$$$$$$$$$$$$$$$$$$$$$$$$$$$$$$$$$$$$$$$$$$$$",
"$$$$$$$$$$$$$$$$$$$$$$$$$$$$$$$$$$$$$$$$$$$$$$$$$$$$$$$$$$$$$$$$",
"....$$$$$$$$$$$$$$$$$$$$$$$$$$$$$$$$$$$$$$$$$$$$$$$$$$$$$$$$....",
"....$$$$$$$$$$$$$$$$$$$$$$$$$$$$$$$$$$$$$$$$$$$$$$$$$$$$$$$$....",
"..++..$$$$$$$$$$$$$$$$$$$$$$$$$$$$$$$$$$$$$$$$$$$$$$$$$$$$..++..",
"..++..$$$$$$$$$$$$$$$$$$$$$$$$$$$$$$$$$$$$$$$$$$$$$$$$$$$$..++..",
"$$..++..$$$$$$$$$$$$$$$$$$$$$$$$$$$$$$$$$$$$$$$$$$$$$$$$..++..$$",
"$$..++..$$$$$$$$$$$$$$$$$$$$$$$$$$$$$$$$$$$$$$$$$$$$$$$$..++..$$",
"$$..OO++..$$$$$$$$$$$$$$$$$$$$$$$$$$$$$$$$$$$$$$$$$$$$..++OO..$$",
"$$..OO++..$$$$$$$$$$$$$$$$$$$$$$$$$$$$$$$$$$$$$$$$$$$$..++OO..$$",
"$$$$  OO++..$$$$$$..$$$$$$$$$$$$$$$$$$$$$$$$..$$$$$$..++OO  $$$$",
"$$$$  OO++..$$$$$$..$$$$$$$$$$$$$$$$$$$$$$$$..$$$$$$..++OO  $$$$",
"$$$$$$..OO++..$$..##..$$$$$$$$$$$$$$$$$$$$..##..$$..++OO..$$$$$$",
"$$$$$$..OO++..$$..##..$$$$$$$$$$$$$$$$$$$$..##..$$..++OO..$$$$$$",
"$$$$$$  OOOO++..######..$$$$$$$$$$$$$$$$..######..++OOOO  $$$$$$",
"$$$$$$  OOOO++..######..$$$$$$$$$$$$$$$$..######..++OOOO  $$$$$$",
"$$$$$$$$  OO++..######..$$$$$$$$$$$$$$$$..######..++OO  $$$$$$$$",
"$$$$$$$$  OO++..######..$$$$$$$$$$$$$$$$..######..++OO  $$$$$$$$",
"$$$$$$$$$$..OO..++####..$$$$$$$$$$$$$$$$..####++..OO..$$$$$$$$$$",
"$$$$$$$$$$..OO..++####..$$$$$$$$$$$$$$$$..####++..OO..$$$$$$$$$$",
"$$$$$$$$$$  OOOO..####++................++####..OOOO  $$$$$$$$$$",
"$$$$$$$$$$  OOOO..####++................++####..OOOO  $$$$$$$$$$",
"$$$$$$$$$$$$  OO..####....############....####..OO  $$$$$$$$$$$$",
"$$$$$$$$$$$$  OO..####....############....####..OO  $$$$$$$$$$$$",
"$$$$$$$$$$$$$$....++########++++++++########++....$$$$$$$$$$$$$$",
"$$$$$$$$$$$$$$....++########++++++++########++....$$$$$$$$$$$$$$",
"$$$$$$$$$$$$$$$$..++####++++++++++++++++####++..$$$$$$$$$$$$$$$$",
"$$$$$$$$$$$$$$$$..++####++++++++++++++++####++..$$$$$$$$$$$$$$$$",
"$$$$$$$$$$$$$$$$..####++++++########++++++####..$$$$$$$$$$$$$$$$",
"$$$$$$$$$$$$$$$$..####++++++########++++++####..$$$$$$$$$$$$$$$$",
"$$$$$$$$$$$$$$$$..####++++############++++####..$$$$$$$$$$$$$$$$",
"$$$$$$$$$$$$$$$$..####++++############++++####..$$$$$$$$$$$$$$$$",
"$$$$$$$$$$$$$$....##++++++############++++++##....$$$$$$$$$$$$$$",
"$$$$$$$$$$$$$$....##++++++############++++++##....$$$$$$$$$$$$$$",
"$$$$$$$$$$$$....++..++##++++########++++##++..++....$$$$$$$$$$$$",
"$$$$$$$$$$$$....++..++##++++########++++##++..++....$$$$$$$$$$$$",
"$$$$$$$$$$$$..++++..++##@@++++####++++@@##++..++++..$$$$$$$$$$$$",
"$$$$$$$$$$$$..++++..++##@@++++####++++@@##++..++++..$$$$$$$$$$$$",
"$$$$$$$$$$..++++####..##  OO++++++++OO  ##..####++++..$$$$$$$$$$",
"$$$$$$$$$$..++++####..##  OO++++++++OO  ##..####++++..$$$$$$$$$$",
"$$$$$$$$$$..##########....OOOOOOOOOOOO....##########..$$$$$$$$$$",
"$$$$$$$$$$..##########....OOOOOOOOOOOO....##########..$$$$$$$$$$",
"$$$$$$$$$$........########..OOOOOOOO..########........$$$$$$$$$$",
"$$$$$$$$$$........########..OOOOOOOO..########........$$$$$$$$$$",
"$$$$$$$$$$..######..##########....##########..######..$$$$$$$$$$",
"$$$$$$$$$$..######..##########....##########..######..$$$$$$$$$$",
"$$$$$$$$..OOOOOO####..####################..####OOOOOO..$$$$$$$$",
"$$$$$$$$..OOOOOO####..####################..####OOOOOO..$$$$$$$$",
"$$$$$$$$..++OOOOOO##..########OOOO########..##OOOOOO++..$$$$$$$$",
"$$$$$$$$..++OOOOOO##..########OOOO########..##OOOOOO++..$$$$$$$$",
"$$$$$$$$..++++OOOO##..####OOOOOOOOOOOO####..##OOOO++++..$$$$$$$$",
"$$$$$$$$..++++OOOO##..####OOOOOOOOOOOO####..##OOOO++++..$$$$$$$$",
"$$$$$$..OO..++++++..##OOOOOO@@@@@@@@OOOOOO##..++++++..OO..$$$$$$",
"$$$$$$..OO..++++++..##OOOOOO@@@@@@@@OOOOOO##..++++++..OO..$$$$$$",
"$$$$..OOOOOO......OO  ..OO@@@@OOOO@@@@OO..  OO......OOOOOO..$$$$",
"$$$$..OOOOOO......OO  ..OO@@@@OOOO@@@@OO..  OO......OOOOOO..$$$$",
"$$$$$$....OOOOOOOO  $$$$ooooXXXXXXXXoooo$$$$  OOOOOOOO....$$$$$$",
"$$$$$$....OOOOOOOO  $$$$ooooXXXXXXXXoooo$$$$  OOOOOOOO....$$$$$$",
"$$$$$$$$..OO..OO  $$$$$$$$$$$$$$$$$$$$$$$$$$$$  OO..OO..$$$$$$$$",
"$$$$$$$$..OO..OO  $$$$$$$$$$$$$$$$$$$$$$$$$$$$  OO..OO..$$$$$$$$",
"$$$$$$$$$$..$$  $$$$$$$$$$$$$$$$$$$$$$$$$$$$$$$$  $$..$$$$$$$$$$",
"$$$$$$$$$$..$$  $$$$$$$$$$$$$$$$$$$$$$$$$$$$$$$$  $$..$$$$$$$$$$",
"$$$$$$$$$$$$$$$$$$$$$$$$$$$$$$$$$$$$$$$$$$$$$$$$$$$$$$$$$$$$$$$$",
"$$$$$$$$$$$$$$$$$$$$$$$$$$$$$$$$$$$$$$$$$$$$$$$$$$$$$$$$$$$$$$$$"
};
