/* XPM */
static char *_00ddbf4b59d4f0f92718257d8081fdaikSSnnZpVD5Y65aJ[] = {
/* columns rows colors chars-per-pixel */
"64 64 8 1 ",
"  c None",
". c gray25",
"X c #800000",
"o c #A80000",
"O c #D02828",
"+ c #F89878",
"@ c #909090",
"# c #F8F8F8",
/* pixels */
"                                                                ",
"                                                                ",
"                                                                ",
"                                                                ",
"                                                                ",
"                                                                ",
"                                                                ",
"                                                                ",
"                                                                ",
"                                                                ",
"                                                                ",
"                                                                ",
"                                                                ",
"                                                                ",
"                                                                ",
"                                                                ",
"                                                                ",
"                                                                ",
"                                                                ",
"                                                                ",
"                            ........                            ",
"                            ........                            ",
"                        ....oooooooo....                        ",
"                        ....oooooooo....                        ",
"                      ..ooOO++OOOOooooXX..                      ",
"                      ..ooOO++OOOOooooXX..                      ",
"                      ..OO++##++OOOOoooo..                      ",
"                      ..OO++##++OOOOoooo..                      ",
"                    ..ooOOOO++OOOOOOooooXX..                    ",
"                    ..ooOOOO++OOOOOOooooXX..                    ",
"                    ..OOOOOOOO....ooooooXX..                    ",
"                    ..OOOOOOOO....ooooooXX..                    ",
"                    ....OOOO..##@@..ooXX....                    ",
"                    ....OOOO..##@@..ooXX....                    ",
"                    ..##......@@@@......@@..                    ",
"                    ..##......@@@@......@@..                    ",
"                      ..######....@@@@@@..                      ",
"                      ..######....@@@@@@..                      ",
"                      ..@@######@@@@@@@@..                      ",
"                      ..@@######@@@@@@@@..                      ",
"                        ....@@@@@@@@....                        ",
"                        ....@@@@@@@@....                        ",
"                            ........                            ",
"                            ........                            ",
"                                                                ",
"                                                                ",
"                                                                ",
"                                                                ",
"                                                                ",
"                                                                ",
"                                                                ",
"                                                                ",
"                                                                ",
"                                                                ",
"                                                                ",
"                                                                ",
"                                                                ",
"                                                                ",
"                                                                ",
"                                                                ",
"                                                                ",
"                                                                ",
"                                                                ",
"                                                                "
};
