/* XPM */
static char *_8c9c6c649b24b6ef97e7465a3ef1a94bqh6CdU3njXIlMpI[] = {
/* columns rows colors chars-per-pixel */
"64 64 28 1 ",
"  c None",
". c black",
"X c #1B2530",
"o c #1F2832",
"O c #212A33",
"+ c #212B33",
"@ c #401C2E",
"# c #411F30",
"$ c #422232",
"% c #764B41",
"& c #754C42",
"* c #754C43",
"= c #535365",
"- c #545465",
"; c #BB3030",
": c #BA3131",
"> c #BA3333",
", c #995D41",
"< c #985D43",
"1 c #FF5352",
"2 c #FF5453",
"3 c #CC7765",
"4 c #DC9887",
"5 c #DD9988",
"6 c #CDC4DD",
"7 c #CDC5DE",
"8 c #FFD6CC",
"9 c #FFF7FF",
/* pixels */
"                                                                ",
"                                                                ",
"                                                                ",
"                                                                ",
"                        $$$$        $$$$                        ",
"                        $$$$        $$$$                        ",
"                      $$;>>>$$    $$>>>>$$                      ",
"                      $$>>>>$$    $$>>>>$$                      ",
"                      $$>;;;@@;;>>$$>>>>$$                      ",
"                      $$>;;;@@;;;;@#>;>>$$                      ",
"                      $$@@772111111177$$$$                      ",
"                      $@@@771111111177$$$$                      ",
"                      $@2177111111117712$$                      ",
"                      $@2277111111117712$$                      ",
"                    ..%%@@117799997711@#**..                    ",
"                    ..%%@@117799997711@@**..                    ",
"                    ..,,,,;;11111111;;,,<<..                    ",
"                    ..,,,,;;11111111;;,,<<..                    ",
"                  ..<<45,,%%@@%%%%@@%%,,54<<..                  ",
"                  ..<,55,,%%@@%%%%@@%%,,44<,..                  ",
"                  ..**,,@@@@55,,@@55@@@@<<**..                  ",
"                  ..**,,@@@@55,,@@55@@@@,<**..                  ",
"                  $$*%@@@@8888%%@@8888@@@$**$$                  ",
"                  $$*%@@@@8888%%@@8888@@@$**$$                  ",
"                  $$$@%%3355@@8888@@5533**$$$$                  ",
"                  $$@@%%3355@@8888@@5533**$$$$                  ",
"                  ......%%55@@5555@@55%%......                  ",
"                  ......%%55@@5555@@55%%......                  ",
"                  ..XX....%%33333333%%....OO..                  ",
"                  ..XX....%%33333333%%....OO..                  ",
"                ..Oo..;;@@@@........@@@@;;......                ",
"                ..OX..;;@@@@........@@@@;;......                ",
"              ....-=9999..;;@@XXXX@@;;..999 --....              ",
"              ....-=9999..;;@@XXXX@@;;..9999--....              ",
"              ..OO-=7777*%77;;;;;;;;77%%7777--OO..              ",
"              ..OO-=7777%%77;;;;;;;;77%%7777=-OO..              ",
"            OO..====....%%....7777....%%....==--..OO            ",
"            OO..====....%%....7777....%%....==--..OO            ",
"            ....XX====....;;;;....;;;;....====XX....            ",
"            ....XX====....;;;;....;;;;....====XX....            ",
"            OO....======..====....====..======....OO            ",
"            OO....======..====....====..======....O+            ",
"        OO........XX======....====....======XX........OO        ",
"        OO........XX======....====....======XX........OO        ",
"        ............========================............        ",
"        ............========================............        ",
"          ............XX================XX............          ",
"          ............XX================XX............          ",
"            OO............XX========XX............OO            ",
"            OO............XX========XX............OO            ",
"              ..................................OO              ",
"              ..................................OO              ",
"                OO............................OO                ",
"                OO............................OO                ",
"                  OO........................OO                  ",
"                  OO........................OO                  ",
"                      OO................OO$$                    ",
"                      OO................OO$$                    ",
"                            ........                            ",
"                            ........                            ",
"                                                                ",
"                                                                ",
"                                                                ",
"                                                                "
};
