/* XPM */
static char *c8bc112e58a7453aba925a33fb44ae3cro862E8jkEG8i8Wo[] = {
/* columns rows colors chars-per-pixel */
"64 64 14 1 ",
"  c None",
". c black",
"X c #212A33",
"o c #422232",
"O c #754C43",
"+ c #545465",
"@ c #BA3333",
"# c #985D43",
"$ c #FF5453",
"% c #CB7665",
"& c #DC9887",
"* c #CCC4DD",
"= c #FFD5CB",
"- c #FFF7FF",
/* pixels */
"                                                                ",
"                                                                ",
"                                                                ",
"                                                                ",
"                        oooo        oooo                        ",
"                        oooo        oooo                        ",
"                      oo@@@@oo    oo@@@@oo                      ",
"                      oo@@@@oo    oo@@@@oo                      ",
"                      oo@@@@oo@@@@oo@@@@oo                      ",
"                      oo@@@@oo@@@@oo@@@@oo                      ",
"                      oooo**$$$$$$$$**oooo                      ",
"                      oooo**$$$$$$$$**oooo                      ",
"                      oo$$**$$$$$$$$**$$oo                      ",
"                      oo$$**$$$$$$$$**$$oo                      ",
"                    ..OOoo$$**----**$$ooOO..                    ",
"                    ..OOoo$$**----**$$ooOO..                    ",
"                    ..####@@$$$$$$$$@@####..                    ",
"                    ..####@@$$$$$$$$@@####..                    ",
"                  ..##&&##OOooOOOOooOO##&&##..                  ",
"                  ..##&&##OOooOOOOooOO##&&##..                  ",
"                  ..OO##oooo&&##oo&&oooo##OO..                  ",
"                  ..OO##oooo&&##oo&&oooo##OO..                  ",
"                  ooOOoooo====OOoo====ooooOOoo                  ",
"                  ooOOoooo====OOoo====ooooOOoo                  ",
"                  ooooOO%%&&oo====oo&&%%OOoooo                  ",
"                  ooooOO%%&&oo====oo&&%%OOoooo                  ",
"                  ......OO&&oo&&&&oo&&OO......                  ",
"                  ......OO&&oo&&&&oo&&OO......                  ",
"                  ..XX....OO%%%%%%%%OO....XX..                  ",
"                  ..XX....OO%%%%%%%%OO....XX..                  ",
"                ..XX..@@oooo........oooo@@......                ",
"                ..XX..@@oooo........oooo@@......                ",
"              ....++----..@@ooXXXXoo@@..----++....              ",
"              ....++----..@@ooXXXXoo@@..----++....              ",
"              ..XX++****OO**@@@@@@@@**OO****++XX..              ",
"              ..XX++****OO**@@@@@@@@**OO****++XX..              ",
"            XX..++++....OO....****....OO....++++..XX            ",
"            XX..++++....OO....****....OO....++++..XX            ",
"            ....XX++++....@@@@....@@@@....++++XX....            ",
"            ....XX++++....@@@@....@@@@....++++XX....            ",
"            XX....++++++..++++....++++..++++++....XX            ",
"            XX....++++++..++++....++++..++++++....XX            ",
"        XX........XX++++++....++++....++++++XX........XX        ",
"        XX........XX++++++....++++....++++++XX........XX        ",
"        ............++++++++++++++++++++++++............        ",
"        ............++++++++++++++++++++++++............        ",
"          ............XX++++++++++++++++XX............          ",
"          ............XX++++++++++++++++XX............          ",
"            XX............XX++++++++XX............XX            ",
"            XX............XX++++++++XX............XX            ",
"              ..................................XX              ",
"              ..................................XX              ",
"                XX............................XX                ",
"                XX............................XX                ",
"                  XX........................XX                  ",
"                  XX........................XX                  ",
"                      XX................XXoo                    ",
"                      XX................XXoo                    ",
"                            ........                            ",
"                            ........                            ",
"                                                                ",
"                                                                ",
"                                                                ",
"                                                                "
};
