/* XPM */
static char *e254888f618c48db9ecb977e3b465770Wpd8T67XTHMBVWX8[] = {
/* columns rows colors chars-per-pixel */
"64 64 14 1 ",
"  c None",
". c black",
"X c #212A33",
"o c #422232",
"O c #754C43",
"+ c #545465",
"@ c #BA3333",
"# c #985D43",
"$ c #FF5453",
"% c #CB7665",
"& c #DC9887",
"* c #CCC4DD",
"= c #FFD5CB",
"- c #FFF7FF",
/* pixels */
"                                                                ",
"                                                                ",
"                                                                ",
"                                                                ",
"                        oooooo      oooooooo                    ",
"                        oooooo      oooooooo                    ",
"                      oo@@@@oo@@@@oo@@@@@@@@oo                  ",
"                      oo@@@@oo@@@@oo@@@@@@@@oo                  ",
"                      oooo**$$$$$$$$**oo@@oo                    ",
"                      oooo**$$$$$$$$**oo@@oo                    ",
"                      oo$$$$**----**$$$$oo                      ",
"                      oo$$$$**----**$$$$oo                      ",
"                      ..oo@@$$$$$$$$@@ooOO..                    ",
"                      ..oo@@$$$$$$$$@@ooOO..                    ",
"              OOOOOO  ..##ooOOOOooooOO####..                    ",
"              OOOOOO  ..##ooOOOOooooOO####..                    ",
"            OO--$$@@OO&&##&&##oo&&&&oo##&&##..                  ",
"            OO--$$@@OO&&##&&##oo&&&&oo##&&##..                  ",
"          OO@@....$$@@##oo==OOoo======oo##OO..                  ",
"          OO@@....$$@@##oo==OOoo======oo##OO..                  ",
"          ..oo..**oo..oo&&oo====oo====oo##OOoo                  ",
"          ..oo..**oo..oo&&oo====oo====oo##OOoo                  ",
"          ..**++++----OO&&oo====oo&&&&%%ooOOoo                  ",
"          ..**++++----OO&&oo====oo&&&&%%ooOOoo                  ",
"            ..******....OO&&&&&&&&%%%%OOooOO..                  ",
"            ..******....OO&&&&&&&&%%%%OOooOO..                  ",
"              ............OO%%%%%%%%OO..oo..                    ",
"              ............OO%%%%%%%%OO..oo..                    ",
"                ..----........OOOO....ooOO..OO                  ",
"                ..----........OOOO....ooOO..OO                  ",
"                OO****..&&@@XX@@@@XXoo..%%++**++                ",
"                OO****..&&@@XX@@@@XXoo..%%++**++                ",
"              ....OO......@@ooXXXXoo@@....****++..              ",
"              ....OO......@@ooXXXXoo@@....****++..              ",
"              ..XX++++..++**@@@@@@@@**++..XX++XX..              ",
"              ..XX++++..++**@@@@@@@@**++..XX++XX..              ",
"            XX..++++++..XXXX********XXXX..++++++..XX            ",
"            XX..++++++..XXXX********XXXX..++++++..XX            ",
"            ....XX++++++..OOXX....XXOO..++++++XX....            ",
"            ....XX++++++..OOXX....XXOO..++++++XX....            ",
"            XX....++++++..OO@@....@@OO..++++++....XX            ",
"            XX....++++++..OO@@....@@OO..++++++....XX            ",
"        XX........XX++++++....++++....++++++XX........XX        ",
"        XX........XX++++++....++++....++++++XX........XX        ",
"        ............++++++++++++++++++++++++............        ",
"        ............++++++++++++++++++++++++............        ",
"          ............XX++++++++++++++++XX............          ",
"          ............XX++++++++++++++++XX............          ",
"            XX............XX++++++++XX............XX            ",
"            XX............XX++++++++XX............XX            ",
"              ..................................XX              ",
"              ..................................XX              ",
"                XX............................XX                ",
"                XX............................XX                ",
"                  XX........................XX                  ",
"                  XX........................XX                  ",
"                      XX................XXoo                    ",
"                      XX................XXoo                    ",
"                            ........                            ",
"                            ........                            ",
"                                                                ",
"                                                                ",
"                                                                ",
"                                                                "
};
