/* XPM */
static char *_a4a74b8655140d0ba88d98c300a6306HK0unvKtGmk7RXUN[] = {
/* columns rows colors chars-per-pixel */
"64 64 15 1 ",
"  c None",
". c black",
"X c #212A33",
"o c #422232",
"O c #754C43",
"+ c #545465",
"@ c #BA3333",
"# c #985D43",
"$ c #FF5453",
"% c #CB7665",
"& c #DC9887",
"* c #CCC4DD",
"= c #FFD5CB",
"- c #FFF7FF",
"; c white",
/* pixels */
"                                                                ",
"                                                                ",
"                                                                ",
"                                                                ",
"                                                                ",
"                                                                ",
"                      oooooo        oooooo                      ",
"                      oooooo        oooooo                      ",
"                    oo@@@@OOoooo@@ooOO@@@@oo                    ",
"                    oo@@@@OOoooo@@ooOO@@@@oo                    ",
"                    oo@@oo$$**$$$$$$$$OOoo                      ",
"                    oo@@oo$$**$$$$$$$$OOoo                      ",
"                      oooo$$****$$$$$$**$$oo                    ",
"                      oooo$$****$$$$$$**$$oo                    ",
"                      ..OOoo$$**----**$$ooOO..                  ",
"                      ..OOoo$$**----**$$ooOO..                  ",
"                      oo####@@$$$$$$$$@@####..                  ",
"                      oo####@@$$$$$$$$@@####..                  ",
"                    ..##&&##OOooOOOOooOO##&&##..                ",
"                    ..##&&##OOooOOOOooOO##&&##..                ",
"                    ..OO##oooo&&##oo##&&oo##OO..                ",
"                    ..OO##oooo&&##oo##&&oo##OO..                ",
"                    ooOOoooo======ooOO==&&ooOOoo                ",
"                    ooOOoooo======ooOO==&&ooOOoo                ",
"                    ooooOO%%====oo&&&&oo%%OOoooo                ",
"                    ooooOO%%====oo&&&&oo%%OOoooo                ",
"                    ......OO%%&&oo&&&&ooOO..;;..                ",
"                    ......OO%%&&oo&&&&ooOO..;;..                ",
"                  ..XX..@@....OO%%%%%%%%..**++                  ",
"                  ..XX..@@....OO%%%%%%%%..**++                  ",
"                ..XX++..@@@@XXXX........****XX..                ",
"                ..XX++..@@@@XXXX........****XX..                ",
"              ....++++..oo@@XX&&++----....XX++....              ",
"              ....++++..oo@@XX&&++----....XX++....              ",
"              ..XX++++....**....++****....++++XX..              ",
"              ..XX++++....**....++****....++++XX..              ",
"            XX..++++++..XXXX****....XXXX..++++++..XX            ",
"            XX..++++++..XXXX****....XXXX..++++++..XX            ",
"            ....XX++++++..&&XXXXXXXX&&..++++++XX....            ",
"            ....XX++++++..&&XXXXXXXX&&..++++++XX....            ",
"            XX....++++++..OO@@....@@OO..++++++....XX            ",
"            XX....++++++..OO@@....@@OO..++++++....XX            ",
"        XX........XX++++++....++++....++++++XX........XX        ",
"        XX........XX++++++....++++....++++++XX........XX        ",
"        ............++++++++++++++++++++++++............        ",
"        ............++++++++++++++++++++++++............        ",
"          ............XX++++++++++++++++XX............          ",
"          ............XX++++++++++++++++XX............          ",
"            XX............XX++++++++XX............XX            ",
"            XX............XX++++++++XX............XX            ",
"              ..................................XX              ",
"              ..................................XX              ",
"                XX............................XX                ",
"                XX............................XX                ",
"                  XX........................XX                  ",
"                  XX........................XX                  ",
"                      XX................XX                      ",
"                      XX................XX                      ",
"                            ........                            ",
"                            ........                            ",
"                                                                ",
"                                                                ",
"                                                                ",
"                                                                "
};
