/* XPM */
static char *result[] = {
/* columns rows colors chars-per-pixel */
"64 64 16 1 ",
"  c black",
". c #212A33",
"X c #422232",
"o c #754C43",
"O c #545465",
"+ c #BA3333",
"@ c #985D43",
"# c #FF5453",
"$ c #CB7665",
"% c #B98F53",
"& c #FFBA53",
"* c #DC9887",
"= c #CCC4DD",
"- c #FFD5CB",
"; c #FFF7FF",
": c None",
/* pixels */
"::::::::::::::::::::::::::::::::::::::::::::::::::::::::::::::::",
"::::::::::::::::::::::::::::::::::::::::::::::::::::::::::::::::",
"::::::::::::::::::::::::::::::::::::::::::::::::::::::::::::::::",
"::::::::::::::::::::::::::::::::::::::::::::::::::::::::::::::::",
"::::::::::::::::::::::::::::::::::::::::XXXXXX::::::::::::::::::",
"::::::::::::::::::::::::::::::::::::::::XXXXXX::::::::::::::::::",
"::::::::::::::::::::::::::::::::XX++++XX++++XXXX::::::::::::::::",
"::::::::::::::::::::::::::::::::XX++++XX++++XXXX::::::::::::::::",
"::::::::::::::::::::::::::::XX==########==XX++++XX::::::::::::::",
"::::::::::::::::::::::::::::XX==########==XX++++XX::::::::::::::",
"::::::::::::::::::::::::::XX####==;;;;==####XX++++::::::::::::::",
"::::::::::::::::::::::::::XX####==;;;;==####XX++++::::::::::::::",
"::::::::::::::::::::::::XX@@XX++########++XX  XXXX::::::::::::::",
"::::::::::::::::::::::::XX@@XX++########++XX  XXXX::::::::::::::",
"::::::::::::::::::::::::XX@@@@XXoooooooooo@@@@  ::::::::::::::::",
"::::::::::::::::::::::::XX@@@@XXoooooooooo@@@@  ::::::::::::::::",
"::::::::::::::::::::::::@@@@XXXX@@@@@@@@@@@@@@  ::::::::::::::::",
"::::::::::::::::::::::::@@@@XXXX@@@@@@@@@@@@@@  ::::::::::::::::",
"::::::::::::::::::::::::ooXX----XX@@@@**@@**@@  ::::::::::::::::",
"::::::::::::::::::::::::ooXX----XX@@@@**@@**@@  ::::::::::::::::",
"::::::::::::::::::::::::oo----XX**XX@@@@@@@@@@  ::::::::::::::::",
"::::::::::::::::::::::::oo----XX**XX@@@@@@@@@@  ::::::::::::::::",
"::::::::::::::::::::::::oo----XX**XXoo@@@@oo  ::::::::::::::::::",
"::::::::::::::::::::::::oo----XX**XXoo@@@@oo  ::::::::::::::::::",
"::::::::::::::::::::::    oo$$$$$$$$XXoooooo  ::::::::::::::::::",
"::::::::::::::::::::::    oo$$$$$$$$XXoooooo  ::::::::::::::::::",
"::::::::::::::::::    ....OOoooo$$XXXXooooXX..::::::::::::::::::",
"::::::::::::::::::    ....OOoooo$$XXXXooooXX..::::::::::::::::::",
"::::::::::::::::  ..OOOOOOOOOO....XXXXXXXX..  ..::::::::::::::::",
"::::::::::::::::  ..OOOOOOOOOO....XXXXXXXX..  ..::::::::::::::::",
"::::::::::::::  ..OOOO  OOOOOO==++..XX++  OO..  ..::::::::::::::",
"::::::::::::::  ..OOOO  OOOOOO==++..XX++  OO..  ..::::::::::::::",
"::::::::::::    ..OO  XX  OO    ooXXXX++XX      ..::::::::::::::",
"::::::::::::    ..OO  XX  OO    ooXXXX++XX      ..::::::::::::::",
"::::::::::::    OOOO  XX      ..==XXooooXX..&&    ..::::::::::::",
"::::::::::::    OOOO  XX      ..==XXooooXX..&&    ..::::::::::::",
"::::::::::      OOOOOO  ++  --**....    XX%%%%    ..::::::::::::",
"::::::::::      OOOOOO  ++  --**....    XX%%%%    ..::::::::::::",
"::::::::::      ..OOOO  ..XX  ****  ;;;;            ..::::::::::",
"::::::::::      ..OOOO  ..XX  ****  ;;;;            ..::::::::::",
"::::::::::      ..OOOOOO  %%oo      ====  OO..      ..::::::::::",
"::::::::::      ..OOOOOO  %%oo      ====  OO..      ..::::::::::",
"::::::::::        ..OOOOOO    OOOOOO    OO..        ..::::::::::",
"::::::::::        ..OOOOOO    OOOOOO    OO..        ..::::::::::",
"::::::::::::          ....OOOOOOOOOO....          ..::::::::::::",
"::::::::::::          ....OOOOOOOOOO....          ..::::::::::::",
"::::::::::::                ......                ..::::::::::::",
"::::::::::::                ......                ..::::::::::::",
"::::::::::::::                                  ..::::::::::::::",
"::::::::::::::                                  ..::::::::::::::",
"::::::::::::::::                              ..::::::::::::::::",
"::::::::::::::::                              ..::::::::::::::::",
"::::::::::::::::::                        ..::::::::::::::::::::",
"::::::::::::::::::                        ..::::::::::::::::::::",
"::::::::::::::::::::::....          ....XX::::::::::::::::::::::",
"::::::::::::::::::::::....          ....XX::::::::::::::::::::::",
"::::::::::::::::::::::::::..        XX::::::::::::::::::::::::::",
"::::::::::::::::::::::::::..        XX::::::::::::::::::::::::::",
"::::::::::::::::::::::::::::XX....  XX::::::::::::::::::::::::::",
"::::::::::::::::::::::::::::XX....  XX::::::::::::::::::::::::::",
"::::::::::::::::::::::::::::::::::::::::::::::::::::::::::::::::",
"::::::::::::::::::::::::::::::::::::::::::::::::::::::::::::::::",
"::::::::::::::::::::::::::::::::::::::::::::::::::::::::::::::::",
"::::::::::::::::::::::::::::::::::::::::::::::::::::::::::::::::"
};
