/* XPM */
static char *result[] = {
/* columns rows colors chars-per-pixel */
"64 64 16 1 ",
"  c black",
". c #212A33",
"X c #422232",
"o c #754C43",
"O c #545465",
"+ c #BA3333",
"@ c #985D43",
"# c #FF5453",
"$ c #CB7665",
"% c #B98F53",
"& c #FFBA53",
"* c #DC9887",
"= c #CCC4DD",
"- c #FFD5CB",
"; c #FFF7FF",
": c None",
/* pixels */
"::::::::::::::::::::::::::::::::::::::::::::::::::::::::::::::::",
"::::::::::::::::::::::::::::::::::::::::::::::::::::::::::::::::",
"::::::::::::::::::::::::::::::::::::::::::::::::::::::::::::::::",
"::::::::::::::::::::::::::::::::::::::::::::::::::::::::::::::::",
"::::::::::::::::::XXXXXX::::::::::::::::::::::::::::::::::::::::",
"::::::::::::::::::XXXXXX::::::::::::::::::::::::::::::::::::::::",
"::::::::::::::::XXXX++++XX++++XX::::::::::::::::::::::::::::::::",
"::::::::::::::::XXXX++++XX++++XX::::::::::::::::::::::::::::::::",
"::::::::::::::XX++++XX==########==XX::::::::::::::::::::::::::::",
"::::::::::::::XX++++XX==########==XX::::::::::::::::::::::::::::",
"::::::::::::::++++XX####==;;;;==####XX::::::::::::::::::::::::::",
"::::::::::::::++++XX####==;;;;==####XX::::::::::::::::::::::::::",
"::::::::::::::XXXX  XX++########++XX@@XX::::::::::::::::::::::::",
"::::::::::::::XXXX  XX++########++XX@@XX::::::::::::::::::::::::",
"::::::::::::::::  @@@@ooooooooooXX@@@@XX::::::::::::::::::::::::",
"::::::::::::::::  @@@@ooooooooooXX@@@@XX::::::::::::::::::::::::",
"::::::::::::::::  @@@@@@@@@@@@@@XXXX@@@@::::::::::::::::::::::::",
"::::::::::::::::  @@@@@@@@@@@@@@XXXX@@@@::::::::::::::::::::::::",
"::::::::::::::::  @@**@@**@@@@XX----XXoo::::::::::::::::::::::::",
"::::::::::::::::  @@**@@**@@@@XX----XXoo::::::::::::::::::::::::",
"::::::::::::::::  @@@@@@@@@@XX**XX----oo::::::::::::::::::::::::",
"::::::::::::::::  @@@@@@@@@@XX**XX----oo::::::::::::::::::::::::",
"::::::::::::::::::  oo@@@@ooXX**XX----oo::::::::::::::::::::::::",
"::::::::::::::::::  oo@@@@ooXX**XX----oo::::::::::::::::::::::::",
"::::::::::::::::::  ooooooXX$$$$$$$$oo    ::::::::::::::::::::::",
"::::::::::::::::::  ooooooXX$$$$$$$$oo    ::::::::::::::::::::::",
"::::::::::::::::::..XXooooXXXX$$ooooOO....    ::::::::::::::::::",
"::::::::::::::::::..XXooooXXXX$$ooooOO....    ::::::::::::::::::",
"::::::::::::::::..  ..XXXXXXXX....OOOOOOOOOO..  ::::::::::::::::",
"::::::::::::::::..  ..XXXXXXXX....OOOOOOOOOO..  ::::::::::::::::",
"::::::::::::::..  ..OO  ++XX..++==OOOOOO  OOOO..  ::::::::::::::",
"::::::::::::::..  ..OO  ++XX..++==OOOOOO  OOOO..  ::::::::::::::",
"::::::::::::::..      XX++XXXXoo    OO  XX  OO..    ::::::::::::",
"::::::::::::::..      XX++XXXXoo    OO  XX  OO..    ::::::::::::",
"::::::::::::..    &&..XXooooXX==..      XX  OOOO    ::::::::::::",
"::::::::::::..    &&..XXooooXX==..      XX  OOOO    ::::::::::::",
"::::::::::::..    %%%%XX    ....**--  ++  OOOOOO      ::::::::::",
"::::::::::::..    %%%%XX    ....**--  ++  OOOOOO      ::::::::::",
"::::::::::..            ;;;;  ****  XX..  OOOO..      ::::::::::",
"::::::::::..            ;;;;  ****  XX..  OOOO..      ::::::::::",
"::::::::::..      ..OO  ====      oo%%  OOOOOO..      ::::::::::",
"::::::::::..      ..OO  ====      oo%%  OOOOOO..      ::::::::::",
"::::::::::..        ..OO    OOOOOO    OOOOOO..        ::::::::::",
"::::::::::..        ..OO    OOOOOO    OOOOOO..        ::::::::::",
"::::::::::::..          ....OOOOOOOOOO....          ::::::::::::",
"::::::::::::..          ....OOOOOOOOOO....          ::::::::::::",
"::::::::::::..                ......                ::::::::::::",
"::::::::::::..                ......                ::::::::::::",
"::::::::::::::..                                  ::::::::::::::",
"::::::::::::::..                                  ::::::::::::::",
"::::::::::::::::..                              ::::::::::::::::",
"::::::::::::::::..                              ::::::::::::::::",
"::::::::::::::::::::..                        ::::::::::::::::::",
"::::::::::::::::::::..                        ::::::::::::::::::",
"::::::::::::::::::::OOXX....          ....::::::::::::::::::::::",
"::::::::::::::::::::OOXX....          ....::::::::::::::::::::::",
"::::::::::::::::::::::::::XX        ..::::::::::::::::::::::::::",
"::::::::::::::::::::::::::XX        ..::::::::::::::::::::::::::",
"::::::::::::::::::::::::::XX  ....XX::::::::::::::::::::::::::::",
"::::::::::::::::::::::::::XX  ....XX::::::::::::::::::::::::::::",
"::::::::::::::::::::::::::::::::::::::::::::::::::::::::::::::::",
"::::::::::::::::::::::::::::::::::::::::::::::::::::::::::::::::",
"::::::::::::::::::::::::::::::::::::::::::::::::::::::::::::::::",
"::::::::::::::::::::::::::::::::::::::::::::::::::::::::::::::::"
};
