/* XPM */
static char *f7843a78f8e047c19d9b9137dd28b022Dl2fzPxLxPMVfgsk[] = {
/* columns rows colors chars-per-pixel */
"64 64 14 1 ",
"  c None",
". c black",
"X c #212A33",
"o c #422232",
"O c #754C43",
"+ c #545465",
"@ c #BA3333",
"# c #985D43",
"$ c #FF5453",
"% c #CB7665",
"& c #B98F53",
"* c #FFBA53",
"= c #CCC4DD",
"- c #FFF7FF",
/* pixels */
"                                                                ",
"                                                                ",
"                                                                ",
"                                                                ",
"                                                                ",
"                                                                ",
"                      oooooo        oooooo                      ",
"                      oooooo        oooooo                      ",
"                    oo$$$$@@oo@@@@oo@@$$$$oo                    ",
"                    oo$$$$@@oo@@@@oo@@$$$$oo                    ",
"                    oo@@@@oo==oooo==oo@@@@oo                    ",
"                    oo@@@@oo==oooo==oo@@@@oo                    ",
"                      oooo@@@@@@@@@@@@oooo                      ",
"                      oooo@@@@@@@@@@@@oooo                      ",
"                    ..oo@@@@oooooooo@@@@oo..                    ",
"                    ..oo@@@@oooooooo@@@@oo..                    ",
"                    ..ooooOO########OOoooo..                    ",
"                    ..ooooOO########OOoooo..                    ",
"                  ..########################..                  ",
"                  ..########################..                  ",
"                  ..OOOO################OOOO..                  ",
"                  ..OOOO################OOOO..                  ",
"                  ooOOooOOOO########OOOOooOOoo                  ",
"                  ooOOooOOOO########OOOOooOOoo                  ",
"                  ooooOOooOOOOOOOOOOOOooOOoooo                  ",
"                  ooooOOooOOOOOOOOOOOOooOOoooo                  ",
"                XX..XX....OO........OO....XX..XX                ",
"                XX..XX....OO........OO....XX..XX                ",
"              XX..XX++..oo..XX%%%%XX..oo..++XX..XX              ",
"              XX..XX++..oo..XX%%%%XX..oo..++XX..XX              ",
"            XX....++..@@@@XXXXXXXXXXXX@@@@..++....XX            ",
"            XX....++..@@@@XXXXXXXXXXXX@@@@..++....XX            ",
"          XX....XX++--ooXXXXXXXXXXXXXXXXoo--++XX....XX          ",
"          XX....XX++--ooXXXXXXXXXXXXXXXXoo--++XX....XX          ",
"        ........++++====oo@@oooooooo@@..====++++........        ",
"        ........++++====oo@@oooooooo@@..====++++........        ",
"      ..........XX++....==oo&&****&&oo==....++XX..........      ",
"      ..........XX++....==oo&&****&&oo==....++XX..........      ",
"      XX..........++++..oooo**&&&&**oooo..++++..........XX      ",
"      XX..........++++..oooo**&&&&**oooo..++++..........XX      ",
"        XX........XX++++....++++++++....++++XX........XX        ",
"        XX........XX++++....++++++++....++++XX........XX        ",
"            XX......++++++++........++++++++......XX            ",
"            XX......++++++++........++++++++......XX            ",
"            XX........XX++++++++++++++++XX........XX            ",
"            XX........XX++++++++++++++++XX........XX            ",
"              XX..........XX++++++++XX..........XX              ",
"              XX..........XX++++++++XX..........XX              ",
"              XX................................XX              ",
"              XX................................XX              ",
"                XX............................                  ",
"                XX............................                  ",
"                    XX....................XX                    ",
"                    XX....................XX                    ",
"                        ..............XX                        ",
"                        ..............XX                        ",
"                            ........                            ",
"                            ........                            ",
"                                                                ",
"                                                                ",
"                                                                ",
"                                                                ",
"                                                                ",
"                                                                "
};
