/* XPM */
static char *e29cfd37a87f4a1cc741a67497c42d06gSGgOJ35pkps4AT1[] = {
/* columns rows colors chars-per-pixel */
"64 64 8 1 ",
"  c None",
". c #604050",
"X c #805858",
"o c #987070",
"O c #808088",
"+ c #B89088",
"@ c #D8B0A0",
"# c #E8D0C8",
/* pixels */
"                                                                ",
"                                                                ",
"                              oooo                              ",
"                              oooo                              ",
"                          oooo++oooo                            ",
"                          oooo++oooo                            ",
"                        oo++++++++++oo                          ",
"                        oo++++++++++oo                          ",
"                      ooXXoo++##++##++++                        ",
"                      ooXXoo++##++##++++                        ",
"                      XX++##++##oo@@@@@@oo                      ",
"                      XX++##++##oo@@@@@@oo                      ",
"                    XX######@@++++@@@@++oooooo                  ",
"                    XX######@@++++@@@@++oooooo                  ",
"                  XX######@@@@@@++@@++@@++oooooo                ",
"                  XX######@@@@@@++@@++@@++oooooo                ",
"                oo++@@@@@@@@++@@@@@@oo++XXXXXX....              ",
"                oo++@@@@@@@@++@@@@@@oo++XXXXXX....              ",
"              ..++@@++++XX@@++@@@@@@@@XX....XXXX....            ",
"              ..++@@++++XX@@++@@@@@@@@XX....XXXX....            ",
"            XXXX@@++XXXXXX@@@@@@@@@@@@XXXX....XXXXXX            ",
"            XXXX@@++XXXXXX@@@@@@@@@@@@XXXX....XXXXXX            ",
"          ..XX..++XXXXXX++@@@@@@@@@@@@ooXX........XX..          ",
"          ..XX..++XXXXXX++@@@@@@@@@@@@ooXX........XX..          ",
"        ..XX..XXXXXXXX++++@@@@@@@@@@@@ooXXXX....XX......        ",
"        ..XX..XXXXXXXX++++@@@@@@@@@@@@ooXXXX....XX......        ",
"        ..XX....XXXX++++++++@@@@@@@@++ooXXXX............        ",
"        ..XX....XXXX++++++++@@@@@@@@++ooXXXX............        ",
"      ........XXXX++++++++++++@@@@++++..XXXXXX..XX........      ",
"      ........XXXX++++++++++++@@@@++++..XXXXXX..XX........      ",
"      ..........++++++++++++++@@++++XX....XXXX............      ",
"      ..........++++++++++++++@@++++XX....XXXX............      ",
"    OO..ooooXXXXXX++++++ooXXXXooooXXoo....XXXXXX..........OOOOOO",
"    OO..ooooXXXXXX++++++ooXXXXooooXXoo....XXXXXX..........OOOOOO",
"    OOooooXXXXooXX++++ooXXXXXXXXooooooXXXX..XXXX..........XXOOOO",
"    OOooooXXXXooXX++++ooXXXXXXXXooooooXXXX..XXXX..........XXOOOO",
"  OO..ooooXX..ooooXXooXXXXXXXXXXooooooXXXX....XXXX..........OOOO",
"  OO..ooooXX..ooooXXooXXXXXXXXXXooooooXXXX....XXXX..........OOOO",
"  OO..ooXX..oo++++ooXXXXXXXXXXXXXXooooooXXXX..XXXX..........OOOO",
"  OO..ooXX..oo++++ooXXXXXXXXXXXXXXooooooXXXX..XXXX..........OOOO",
"  OO..XX..XXoo++oo..XXXXXXXXXXXXXXXXooooXXXX....XXXX........OOOO",
"  OO..XX..XXoo++oo..XXXXXXXXXXXXXXXXooooXXXX....XXXX........OOOO",
"  OO..XX..ooooooXX....XXXXXXXXXXXXXXXXooXX..XX..XXXX....XX..OOOO",
"  OO..XX..ooooooXX....XXXXXXXXXXXXXXXXooXX..XX..XXXX....XX..OOOO",
"  OO....XXooooXXXXXXXX....XXXXXXXXXXXX....XXXXXXXXXXXXXX....OOOO",
"  OO....XXooooXXXXXXXX....XXXXXXXXXXXX....XXXXXXXXXXXXXX....OOOO",
"  OO....XXXXXX..XXXXXXXXXXXXXXXXXX....XXXXXXXXXX..XXXX..XX..OOOO",
"  OO....XXXXXX..XXXXXXXXXXXXXXXXXX....XXXXXXXXXX..XXXX..XX..OOOO",
"  OO..XXXX......ooooooXXXX..XXXX..XX....XXXXXXXX......XX....OOOO",
"  OO..XXXX......ooooooXXXX..XXXX..XX....XXXXXXXX......XX....OOOO",
"  OO..XX..XX....ooooooooXXXX......XX....XXXXXXoo....XX..XX..OOOO",
"  OO..XX..XX....ooooooooXXXX......XX....XXXXXXoo....XX..XX..OOOO",
"  OOXX..XX..XX..ooooooXX........XXXXXX..XXXXXXXX..XX..XX..XXOOOO",
"  OOXX..XX..XX..ooooooXX........XXXXXX..XXXXXXXX..XX..XX..XXOOOO",
"  OOOOXX..XX....XXXXXXXX........XXXXXX....XXXXXX....XX..XXOOOO  ",
"  OOOOXX..XX....XXXXXXXX........XXXXXX....XXXXXX....XX..XXOOOO  ",
"    OOOO........XXXXXXXX........XXXXXX....XXXXXX........OOOOOO  ",
"    OOOO........XXXXXXXX........XXXXXX....XXXXXX........OOOOOO  ",
"      OOOOXX......XXXXXX........XXXXXXXX....XX......XXOOOOOO    ",
"      OOOOXX......XXXXXX........XXXXXXXX....XX......XXOOOOOO    ",
"        OOOOOOXXOO....XX........XXXXXXXX..XXOOOOXXOOOOOOOO      ",
"        OOOOOOXXOO....XX........XXXXXXXX..XXOOOOXXOOOOOOOO      ",
"            OOOOOOOOOO..................OOOOOOOOOOOOOO          ",
"            OOOOOOOOOO..................OOOOOOOOOOOOOO          "
};
