/* XPM */
static char *_ada887512c34ac88473c74f4117fdc90zBuBJDIQvLoaM4h[] = {
/* columns rows colors chars-per-pixel */
"64 64 2 1 ",
"  c #5068D0",
". c #6880D0",
/* pixels */
"                                                        ....    ",
"                                                        ....    ",
"                                                        ....    ",
"                                                        ....    ",
"                                                        ....    ",
"                                                        ....    ",
"                                                            ....",
"                                                            ....",
"                                                            ....",
"                                                            ....",
"........                                                        ",
"........                                                        ",
"........                                                        ",
"........                                                        ",
"        ........                                                ",
"        ........                                                ",
"        ........                                                ",
"        ........                                                ",
"                ....                                            ",
"                ....                                            ",
"                ....                                            ",
"                ....                                            ",
"                    ....                                        ",
"                    ....                                        ",
"                    ....                                        ",
"                    ....                                        ",
"                    ....                                        ",
"                    ....                                        ",
"                    ....                                        ",
"                    ....                                        ",
"                        ....                                    ",
"                        ....                                    ",
"                        ....                                    ",
"                        ....                                    ",
"                        ....                                    ",
"                        ....                                    ",
"                        ....                                    ",
"                        ....                                    ",
"                            ....                                ",
"                            ....                                ",
"                            ....                                ",
"                            ....                                ",
"                                ........                        ",
"                                ........                        ",
"                                ........                        ",
"                                ........                        ",
"                                        ........                ",
"                                        ........                ",
"                                        ........                ",
"                                        ........                ",
"                                                ....            ",
"                                                ....            ",
"                                                ....            ",
"                                                ....            ",
"                                                    ....        ",
"                                                    ....        ",
"                                                    ....        ",
"                                                    ....        ",
"                                                    ....        ",
"                                                    ....        ",
"                                                    ....        ",
"                                                    ....        ",
"                                                        ....    ",
"                                                        ....    "
};
