/* XPM */
static char *_90aaf8dafee42aaa9834257002505e9kPVWAKVPONC6L7vH[] = {
/* columns rows colors chars-per-pixel */
"64 64 2 1 ",
"  c #5068D0",
". c #6880D0",
/* pixels */
"                    ........                                    ",
"                    ........                                    ",
"                            ....                                ",
"                            ....                                ",
"                            ....                                ",
"                            ....                                ",
"                                ....                            ",
"                                ....                            ",
"                                ....                            ",
"                                ....                            ",
"                                ....                            ",
"                                ....                            ",
"                                ....                            ",
"                                ....                            ",
"                                    ....                        ",
"                                    ....                        ",
"                                    ....                        ",
"                                    ....                        ",
"                                    ....                        ",
"                                    ....                        ",
"                                    ....                        ",
"                                    ....                        ",
"                                        ....                    ",
"                                        ....                    ",
"                                        ....                    ",
"                                        ....                    ",
"                                            ........            ",
"                                            ........            ",
"                                            ........            ",
"                                            ........            ",
"                                                    ........    ",
"                                                    ........    ",
"                                                    ........    ",
"                                                    ........    ",
"                                                            ....",
"                                                            ....",
"                                                            ....",
"                                                            ....",
"....                                                            ",
"....                                                            ",
"....                                                            ",
"....                                                            ",
"....                                                            ",
"....                                                            ",
"....                                                            ",
"....                                                            ",
"    ....                                                        ",
"    ....                                                        ",
"    ....                                                        ",
"    ....                                                        ",
"    ....                                                        ",
"    ....                                                        ",
"    ....                                                        ",
"    ....                                                        ",
"        ....                                                    ",
"        ....                                                    ",
"        ....                                                    ",
"        ....                                                    ",
"            ........                                            ",
"            ........                                            ",
"            ........                                            ",
"            ........                                            ",
"                    ........                                    ",
"                    ........                                    "
};
